# xmcd
#
# Track frame offsets: 
#        150
#        15411
#        33282
#        51981
#        72219
#        88056
#        104919
#        126488
#        152078
#        165105
#        182229
#        200001
#        215272
#        229246
#        250233
#
# Disc length: 3522 seconds
#
# Revision: 0
# Processed by: cddbd v1.5.2PL0 Copyright (c) Steve Scherf et al.
# Submitted via: ExactAudioCopy v0.99pb5
#
DISCID=d10dc00f
DTITLE=Walter Jr. - Back On The Bayou Road
DYEAR=2006
DGENRE=Blues
TTITLE0=Hot Louisiana Rock
TTITLE1=Done Did Dat
TTITLE2=Back On The Bayou Road
TTITLE3=Gator Bait
TTITLE4=I Gotta Moan
TTITLE5=Surrender To Love
TTITLE6=A Woman Like You
TTITLE7=Mojo Man
TTITLE8=Leave Well Enough Alone
TTITLE9=Delta Cat
TTITLE10=Karma Come
TTITLE11=Mathilda
TTITLE12=Who You Gonna Hoodoo
TTITLE13=Two Tone Baby
TTITLE14=I'm A Louisiana Man
EXTD=
EXTT0=
EXTT1=
EXTT2=
EXTT3=
EXTT4=
EXTT5=
EXTT6=
EXTT7=
EXTT8=
EXTT9=
EXTT10=
EXTT11=
EXTT12=
EXTT13=
EXTT14=
PLAYORDER=
